<svg width="170" height="170" viewBox="0 0 170 170" fill="none" xmlns="http://www.w3.org/2000/svg">
<g filter="url(#filter0_d_1001_2)">
<circle cx="85" cy="65" r="35" fill="#0EC2B7"/>
</g>
<path d="M85 47C75.1 47 67 55.0998 67 65C67 74.9002 75.0998 83 85 83C94.9002 83 103 74.9002 103 65C103 55.0998 94.9002 47 85 47ZM85 80.1868C76.675 80.1868 69.8124 73.3244 69.8124 64.9992C69.8124 56.674 76.6748 49.8116 85 49.8116C93.3252 49.8116 100.188 56.674 100.188 64.9992C100.188 73.3244 93.3252 80.1868 85 80.1868Z" fill="white"/>
<path d="M86.125 63.6497H83.8745C82.637 63.6497 81.7368 62.6374 81.7368 61.512C81.7376 60.3867 82.7499 59.3744 83.8745 59.3744H88.2619C89.0498 59.3744 89.7246 58.6995 89.7246 57.9117C89.7246 57.1238 89.0497 56.449 88.2619 56.449H86.3495V54.8748C86.3495 54.087 85.6747 53.4121 84.8868 53.4121C84.099 53.4121 83.4241 54.087 83.4241 54.8748V56.4497C80.8369 56.562 78.6992 58.6995 78.6992 61.3998C78.6992 64.1 80.949 66.3499 83.6493 66.3499L86.1251 66.3491C87.3626 66.3491 88.2627 67.3614 88.2627 68.4868C88.2619 69.6121 87.2496 70.6244 86.1251 70.6244H81.7377C80.9498 70.6244 80.2749 71.2993 80.2749 72.0872C80.2749 72.875 80.9498 73.5499 81.7377 73.5499H83.65V75.124C83.65 75.9119 84.3249 76.5867 85.1127 76.5867C85.9006 76.5867 86.5754 75.9118 86.5754 75.124V73.5491C89.1627 73.4369 91.3003 71.2993 91.3003 68.599C91.0743 65.7874 88.8246 63.6497 86.125 63.6497V63.6497Z" fill="white"/>
<defs>
<filter id="filter0_d_1001_2" x="0" y="0" width="170" height="170" filterUnits="userSpaceOnUse" color-interpolation-filters="sRGB">
<feFlood flood-opacity="0" result="BackgroundImageFix"/>
<feColorMatrix in="SourceAlpha" type="matrix" values="0 0 0 0 0 0 0 0 0 0 0 0 0 0 0 0 0 0 127 0" result="hardAlpha"/>
<feOffset dy="20"/>
<feGaussianBlur stdDeviation="25"/>
<feComposite in2="hardAlpha" operator="out"/>
<feColorMatrix type="matrix" values="0 0 0 0 0.0666667 0 0 0 0 0.764706 0 0 0 0 0.721569 0 0 0 0.5 0"/>
<feBlend mode="normal" in2="BackgroundImageFix" result="effect1_dropShadow_1001_2"/>
<feBlend mode="normal" in="SourceGraphic" in2="effect1_dropShadow_1001_2" result="shape"/>
</filter>
</defs>
</svg>
